# Alias OBJ Model File
# Exported from SketchUp, (c) 2000-2012 Trimble Navigation Limited
# File units = meters

mtllib ForestWorld.mtl

g Mesh1 Model

usemtl Color_E14
v 0.25 0 -0
vt -9.84252 0
vn 0 -1 -0
v 0.125 0 -0
vt -4.92126 0
v 0.125 0 -0.125
vt -4.92126 4.92126
v 0.25 0 -0.125
vt -9.84252 4.92126
f 1/1/1 2/2/1 3/3/1 4/4/1 

vn -1 0 -0
vt 0 0
v 0.125 0.05 -0
vt 0 1.9685
v 0.125 0.05 -0.125
vt -4.92126 1.9685
f 3/2/2 2/5/2 5/6/2 6/7/2 

vn 0 0 -1
v 0.0625 0 -0
vt -2.46063 0
v 0.0625 0.05 -0
vt -2.46063 1.9685
f 2/2/3 7/8/3 8/9/3 5/7/3 

vt -1.47638 0
vn 0.8 0 -0.6
v 0.015625 0 -0.0625
vt 1.59941 0
v 0.015625 0.05 -0.0625
vt 1.59941 1.9685
vt -1.47638 1.9685
f 7/10/4 9/11/4 10/12/4 8/13/4 

vt 2.23796 0
vn 0.970143 0 -0.242536
v 0 0 -0.125
vt 4.77432 0
v 0 0.05 -0.125
vt 4.77432 1.9685
vt 2.23796 1.9685
f 9/14/5 11/15/5 12/16/5 10/17/5 

vn 0.970143 0 0.242536
v 0.015625 0 -0.1875
vt 7.31068 0
v 0.015625 0.05 -0.1875
vt 7.31068 1.9685
f 11/15/6 13/18/6 14/19/6 12/16/6 

vt 6.27461 0
vn 0.8 0 0.6
v 0.0625 0 -0.25
vt 9.35039 0
v 0.0625 0.05 -0.25
vt 9.35039 1.9685
vt 6.27461 1.9685
f 13/20/7 15/21/7 16/22/7 14/23/7 

vt 2.46063 0
vn 0 0 1
v 0.125 0 -0.25
vt 4.92126 0
v 0.125 0.05 -0.25
vt 4.92126 1.9685
vt 2.46063 1.9685
f 15/24/8 17/25/8 18/26/8 16/27/8 

vt -9.84252 1.9685
f 17/1/2 3/2/2 6/7/2 18/28/2 

vt -4.92126 9.84252
v 0.25 0 -0.25
vt -9.84252 9.84252
f 4/4/1 3/3/1 17/29/1 19/30/1 

v 0.375 0 -0.1875
vt -14.7638 7.38189
v 0.3125 0 -0.1875
vt -12.3031 7.38189
v 0.3125 0 -0.125
vt -12.3031 4.92126
v 0.4375 0 -0.25
vt -17.2244 9.84252
v 0.5 0 -0.25
vt -19.685 9.84252
v 0.5 0 -0.125
vt -19.685 4.92126
v 0.375 0 -0.125
vt -14.7638 4.92126
f 20/31/1 21/32/1 22/33/1 4/4/1 19/30/1 23/34/1 24/35/1 25/36/1 26/37/1 

vt 12.3031 0
vn -3.60956e-016 0 1
vt 14.7638 0
v 0.375 0.05 -0.1875
vt 14.7638 1.9685
v 0.3125 0.05 -0.1875
vt 12.3031 1.9685
f 21/38/9 20/39/9 27/40/9 28/41/9 

vt -7.38189 0
v 0.375 0.05 -0.125
vt -7.38189 1.9685
f 20/42/2 26/2/2 29/7/2 27/43/2 

vt -14.7638 0
vt -12.3031 0
v 0.3125 0.05 -0.125
vt -12.3031 1.9685
vt -14.7638 1.9685
f 26/44/3 22/45/3 30/46/3 29/47/3 

v 0.375 0 -0
f 1/1/1 4/4/1 22/33/1 26/37/1 31/44/1 

f 26/37/1 25/36/1 31/44/1

vn 1 0 -0
vt 7.38189 0
vt 7.38189 1.9685
f 22/25/10 21/48/10 28/49/10 30/26/10 

f 30/33/1 28/32/1 27/31/1 29/37/1 

v 0.5 0 -0.5
vt -19.685 19.685
v 0.5 0 -0.375
vt -19.685 14.7638
v 0.4375 0 -0.375
vt -17.2244 14.7638
v 0.25 0 -0.375
vt -9.84252 14.7638
v 0.3125 0 -0.375
vt -12.3031 14.7638
v 0.3125 0 -0.5
vt -12.3031 19.685
f 32/50/1 33/51/1 34/52/1 23/34/1 19/30/1 35/53/1 36/54/1 37/55/1 

vt 17.2244 0
vt 19.685 0
v 0.5 0.05 -0.375
vt 19.685 1.9685
v 0.4375 0.05 -0.375
vt 17.2244 1.9685
f 34/56/8 33/57/8 38/58/8 39/59/8 

v 0.5 0.05 -0.25
f 33/44/2 24/1/2 40/28/2 38/47/2 

vt -19.685 0
vt -17.2244 0
v 0.4375 0.05 -0.25
vt -17.2244 1.9685
vt -19.685 1.9685
f 24/60/3 23/61/3 41/62/3 40/63/3 

vt 9.84252 1.9685
vt 9.84252 0
f 41/64/10 23/65/10 34/39/10 39/40/10 

f 40/35/1 41/34/1 39/52/1 38/51/1 

v 0.3125 0.05 -0.375
v 0.25 0.05 -0.375
f 42/46/3 36/45/3 35/1/3 43/28/3 

v 0.3125 0.05 -0.5
f 44/63/2 37/60/2 36/44/2 42/47/2 

v 0.25 0 -0.5
v 0.25 0.05 -0.5
f 45/65/8 37/38/8 44/41/8 46/64/8 

v 0.375 0 -0.625
vt -14.7638 24.6063
v 0.375 0 -0.5625
vt -14.7638 22.1457
v 0.4375 0 -0.5625
vt -17.2244 22.1457
v 0.4375 0 -0.625
vt -17.2244 24.6063
v 0.5 0 -0.625
vt -19.685 24.6063
vt -9.84252 19.685
v 0.25 0 -0.625
vt -9.84252 24.6063
f 47/66/1 48/67/1 49/68/1 50/69/1 51/70/1 32/50/1 37/55/1 45/71/1 52/72/1 

vt 22.1457 0
vt 24.6063 0
v 0.375 0.05 -0.625
vt 24.6063 1.9685
v 0.375 0.05 -0.5625
vt 22.1457 1.9685
f 48/73/10 47/74/10 53/75/10 54/76/10 

v 0.4375 0.05 -0.625
f 47/39/8 50/56/8 55/59/8 53/40/8 

v 0.5 0 -0.75
vt -19.685 29.5276
v 0.375 0 -0.75
vt -14.7638 29.5276
f 56/77/1 51/70/1 50/69/1 47/66/1 57/78/1 

v 0.625 0 -0.75
vt -24.6063 29.5276
v 0.625 0 -0.625
vt -24.6063 24.6063
f 58/79/1 59/80/1 51/70/1 56/77/1 

vt 29.5276 0
v 0.625 0.05 -0.75
vt 29.5276 1.9685
v 0.625 0.05 -0.625
f 59/74/10 58/81/10 60/82/10 61/75/10 

v 0.6875 0 -0.75
vt 27.0669 0
v 0.6875 0.05 -0.75
vt 27.0669 1.9685
f 58/74/8 62/83/8 63/84/8 60/75/8 

vn -0.8 0 0.6
v 0.734375 0 -0.6875
vt -4.3061 0
v 0.734375 0.05 -0.6875
vt -4.3061 1.9685
f 62/42/11 64/85/11 65/86/11 63/43/11 

vt -19.2465 0
vn -0.970143 0 0.242536
v 0.75 0 -0.625
vt -16.7101 0
v 0.75 0.05 -0.625
vt -16.7101 1.9685
vt -19.2465 1.9685
f 64/87/12 66/88/12 67/89/12 65/90/12 

vt -31.0331 0
vn -0.970143 0 -0.242536
v 0.734375 0 -0.5625
vt -28.4967 0
v 0.734375 0.05 -0.5625
vt -28.4967 1.9685
vt -31.0331 1.9685
f 66/91/13 68/92/13 69/93/13 67/94/13 

vt -35.064 0
vn -0.8 0 -0.6
v 0.6875 0 -0.5
vt -31.9882 0
v 0.6875 0.05 -0.5
vt -31.9882 1.9685
vt -35.064 1.9685
f 68/95/14 70/96/14 71/97/14 69/98/14 

vt -27.0669 0
v 0.625 0 -0.5
vt -24.6063 0
v 0.625 0.05 -0.5
vt -24.6063 1.9685
vt -27.0669 1.9685
f 70/99/3 72/100/3 73/101/3 71/102/3 

f 72/57/10 59/74/10 61/75/10 73/58/10 

vt -24.6063 19.685
f 32/50/1 51/70/1 59/80/1 72/103/1 

vt -28.9124 27.0669
vt -29.5276 24.6063
vt -28.9124 22.1457
vt -27.0669 19.685
vt -27.0669 29.5276
f 65/104/1 67/105/1 69/106/1 71/107/1 73/103/1 61/80/1 60/79/1 63/108/1 

f 47/66/1 52/72/1 57/78/1

vt -22.1457 0
v 0.4375 0.05 -0.5625
vt -22.1457 1.9685
f 50/100/2 49/109/2 74/110/2 55/101/2 

f 49/61/3 48/44/3 54/47/3 74/62/3 

f 55/69/1 74/68/1 54/67/1 53/66/1 

f 43/53/1 46/71/1 44/55/1 42/54/1 

f 35/39/10 45/57/10 46/58/10 43/40/10 

vt -2.46063 9.84252
vt -0.615157 2.46063
vt 0 4.92126
vt -0.615157 7.38189
f 16/111/1 18/29/1 6/3/1 5/2/1 8/8/1 10/112/1 12/113/1 14/114/1 

